# xmcd
#
# Track frame offsets:
#	150
#	15389
#	34493
#	49627
#	68902
#	80603
#	93474
#	104276
#	122610
#	136169
#	149216
#	163755
#	176376
#
# Disc length: 2531 seconds
#
# Revision: 1
# Processed by: cddbd v1.5.2PL0 Copyright (c) Steve Scherf et al.
# Submitted via: audiograbber 1.83.01
#
DISCID=b109e10d
DTITLE=John Farry - Words and Music
DYEAR=1998
DGENRE=
TTITLE0=Number One
TTITLE1=We're Falling Deeper In Love Every Day
TTITLE2=The Morning After The Night Before
TTITLE3=The Lord Is The Driver
TTITLE4=All Of My Life
TTITLE5=This Time It's For Real
TTITLE6=Lost In A World Of Loneliness
TTITLE7=It's Not Easy Letting Go
TTITLE8=Drivin'
TTITLE9=Don't Wake Me Up
TTITLE10=Mysterious Woman
TTITLE11=Forever
TTITLE12=Lifetime Love Affair
EXTD=
EXTT0=
EXTT1=
EXTT2=
EXTT3=
EXTT4=
EXTT5=
EXTT6=
EXTT7=
EXTT8=
EXTT9=
EXTT10=
EXTT11=
EXTT12=
PLAYORDER=
